<svg width="15" height="15" viewBox="0 0 15 15" fill="none" xmlns="http://www.w3.org/2000/svg">
<path d="M8.07373 10.3708L5.77866 12.6659C5.77866 12.6659 5.77866 12.666 5.7786 12.666C5.7786 12.666 5.7786 12.666 5.77855 12.666C4.82947 13.6152 3.2851 13.6152 2.33591 12.666C1.87609 12.2062 1.62291 11.5949 1.62291 10.9447C1.62291 10.2945 1.87609 9.68328 2.33575 9.22345C2.33581 9.2234 2.33586 9.22335 2.33591 9.22329L4.63099 6.92817C4.94783 6.61127 4.94783 6.09745 4.63093 5.7806C4.31408 5.46376 3.80027 5.46376 3.48337 5.7806L1.1883 8.07573C1.18814 8.07589 1.18797 8.07611 1.18781 8.07627C0.42185 8.8425 0 9.86121 0 10.9447C0 12.0284 0.422012 13.0473 1.18835 13.8136C1.97936 14.6046 3.0183 15.0001 4.05729 15.0001C5.09628 15.0001 6.13526 14.6046 6.92617 13.8136V13.8135C6.92622 13.8135 6.92622 13.8135 6.92622 13.8135L9.22129 11.5184C9.53814 11.2015 9.53814 10.6877 9.22124 10.3708C8.90444 10.054 8.39068 10.054 8.07373 10.3708Z" fill="#E559ED"/>
<path d="M14.9982 4.05925C14.9982 2.97552 14.5761 1.95666 13.8098 1.19032C12.2278 -0.391591 9.65383 -0.391537 8.07197 1.19032C8.07192 1.19043 8.07181 1.19048 8.07176 1.19059L5.77674 3.48555C5.45984 3.8024 5.45984 4.31627 5.77674 4.63311C5.93524 4.79162 6.14287 4.87082 6.35055 4.87082C6.55817 4.87082 6.7659 4.79156 6.9243 4.63311L9.21932 2.33815C9.21937 2.33804 9.21948 2.33799 9.21959 2.33788C10.1687 1.3888 11.713 1.38875 12.6622 2.33788C13.122 2.79771 13.3753 3.40906 13.3753 4.05925C13.3753 4.70939 13.1221 5.32063 12.6624 5.78046C12.6623 5.78051 12.6623 5.78057 12.6622 5.78062L10.3672 8.07575C10.0503 8.39259 10.0503 8.90641 10.3672 9.22331C10.5257 9.38176 10.7333 9.46101 10.941 9.46101C11.1486 9.46101 11.3563 9.38176 11.5148 9.22331L13.8098 6.92818C13.81 6.92802 13.8102 6.9278 13.8103 6.92764C14.5763 6.16141 14.9982 5.14271 14.9982 4.05925Z" fill="#E559ED"/>
<path d="M4.63221 10.37C4.79066 10.5284 4.99834 10.6077 5.20596 10.6077C5.41364 10.6077 5.62132 10.5284 5.77977 10.37L10.37 5.77973C10.6869 5.46288 10.6869 4.94907 10.37 4.63217C10.0532 4.31532 9.53935 4.31532 9.22245 4.63217L4.63221 9.22236C4.31531 9.53931 4.31531 10.0531 4.63221 10.37Z" fill="#E559ED"/>
</svg>
