<svg width="36" height="36" viewBox="0 0 36 36" fill="none" xmlns="http://www.w3.org/2000/svg">
<circle cx="18" cy="18" r="18" fill="#F8F8F8"/>
<path d="M26.8553 16.3614C26.8386 16.2674 26.7562 16.2 26.6607 16.2H18.2C18.0895 16.2 18 16.2895 18 16.4V19.6C18 19.7105 18.0895 19.8 18.2 19.8H23.0864C22.3443 21.8956 20.3503 23.4 18 23.4C15.0178 23.4 12.6 20.9822 12.6 18C12.6 15.0178 15.0178 12.6 18 12.6C19.3087 12.6 20.5052 13.0694 21.4394 13.8446C21.5209 13.9123 21.6409 13.9091 21.7158 13.8342L23.9816 11.5684C24.0617 11.4883 24.0595 11.3577 23.975 11.2824C22.3853 9.8667 20.2961 9 18 9C13.0297 9 9 13.0297 9 18C9 22.9703 13.0297 27 18 27C22.9703 27 27 22.9703 27 18C27 17.453 26.949 16.8872 26.8553 16.3614Z" fill="#614AA1"/>
</svg>
