<svg width="36" height="36" viewBox="0 0 36 36" fill="none" xmlns="http://www.w3.org/2000/svg">
<circle cx="18" cy="18" r="18" fill="#F8F8F8"/>
<path d="M18.0007 14.7505C16.2057 14.7505 14.7507 16.2056 14.7507 18.0005C14.7507 19.7955 16.2057 21.2505 18.0007 21.2505C19.7956 21.2505 21.2507 19.7955 21.2507 18.0005C21.2507 16.2056 19.7956 14.7505 18.0007 14.7505Z" fill="#614AA1"/>
<path fill-rule="evenodd" clip-rule="evenodd" d="M12.7702 9.082C16.2183 8.69662 19.783 8.69662 23.2312 9.082C25.1296 9.29418 26.6607 10.79 26.8836 12.695C27.2958 16.22 27.2958 19.7811 26.8836 23.3061C26.6607 25.2111 25.1296 26.7069 23.2312 26.9191C19.783 27.3044 16.2183 27.3044 12.7702 26.9191C10.8718 26.7069 9.34062 25.2111 9.1178 23.3061C8.70552 19.7811 8.70552 16.22 9.1178 12.695C9.34062 10.79 10.8718 9.29418 12.7702 9.082ZM23.0007 12.0005C22.4484 12.0005 22.0007 12.4482 22.0007 13.0005C22.0007 13.5528 22.4484 14.0005 23.0007 14.0005C23.553 14.0005 24.0007 13.5528 24.0007 13.0005C24.0007 12.4482 23.553 12.0005 23.0007 12.0005ZM13.2507 18.0005C13.2507 15.3772 15.3773 13.2505 18.0007 13.2505C20.624 13.2505 22.7507 15.3772 22.7507 18.0005C22.7507 20.6239 20.624 22.7505 18.0007 22.7505C15.3773 22.7505 13.2507 20.6239 13.2507 18.0005Z" fill="#614AA1"/>
</svg>
