<svg width="36" height="36" viewBox="0 0 36 36" fill="none" xmlns="http://www.w3.org/2000/svg">
<circle cx="18" cy="18" r="18" fill="#F8F8F8"/>
<path d="M10.75 7.875C9.57639 7.875 8.625 8.82639 8.625 10C8.625 11.1736 9.57639 12.125 10.75 12.125C11.9236 12.125 12.875 11.1736 12.875 10C12.875 8.82639 11.9236 7.875 10.75 7.875Z" fill="#614AA1"/>
<path d="M8.75 13.875C8.68096 13.875 8.625 13.931 8.625 14V27C8.625 27.069 8.68096 27.125 8.75 27.125H12.75C12.819 27.125 12.875 27.069 12.875 27V14C12.875 13.931 12.819 13.875 12.75 13.875H8.75Z" fill="#614AA1"/>
<path d="M15.25 13.875C15.181 13.875 15.125 13.931 15.125 14V27C15.125 27.069 15.181 27.125 15.25 27.125H19.25C19.319 27.125 19.375 27.069 19.375 27V20C19.375 19.5027 19.5725 19.0258 19.9242 18.6742C20.2758 18.3225 20.7527 18.125 21.25 18.125C21.7473 18.125 22.2242 18.3225 22.5758 18.6742C22.9275 19.0258 23.125 19.5027 23.125 20V27C23.125 27.069 23.181 27.125 23.25 27.125H27.25C27.319 27.125 27.375 27.069 27.375 27V18.3802C27.375 15.9535 25.2644 14.055 22.8498 14.2745C22.1052 14.3422 21.369 14.5273 20.6815 14.8219L19.375 15.3819V14C19.375 13.931 19.319 13.875 19.25 13.875H15.25Z" fill="#614AA1"/>
</svg>
