<svg width="14" height="12" viewBox="0 0 14 12" fill="none" xmlns="http://www.w3.org/2000/svg">
<path d="M3.40174 0.168047C5.79607 -0.0560156 8.20393 -0.0560158 10.5983 0.168047L11.7518 0.275998C12.5197 0.347861 13.1774 0.840959 13.5182 1.5463C13.5618 1.63653 13.5291 1.74578 13.4488 1.79932L8.66271 4.9889C7.63622 5.67297 6.34191 5.68732 5.30255 5.02615L0.484464 1.96121C0.406622 1.9117 0.370892 1.80976 0.405973 1.72005C0.717734 0.922793 1.41865 0.353627 2.24819 0.275998L3.40174 0.168047Z" fill="#E559EE"/>
<path d="M0.402052 3.34146C0.282923 3.26568 0.130919 3.34723 0.117032 3.49544C-0.0767776 5.56401 -0.0298702 7.65215 0.257755 9.71124C0.409385 10.7968 1.23234 11.6289 2.24819 11.724L3.40174 11.832C5.79606 12.056 8.20394 12.056 10.5983 11.832L11.7518 11.724C12.7677 11.6289 13.5906 10.7968 13.7422 9.71124C14.0383 7.59215 14.0793 5.44228 13.8654 3.31465C13.8504 3.16539 13.6958 3.08534 13.5772 3.16437L9.26577 6.03763C7.877 6.96314 6.12587 6.98256 4.71968 6.08804L0.402052 3.34146Z" fill="#E559EE"/>
</svg>
