<svg width="13" height="13" viewBox="0 0 13 13" fill="none" xmlns="http://www.w3.org/2000/svg">
<path d="M0.657651 5.18182C2.17055 8.47883 4.86257 11.1002 8.20947 12.5212L8.74597 12.7604C9.97341 13.3076 11.4163 12.8919 12.165 11.7753L12.8661 10.7297C13.094 10.3898 13.0246 9.93187 12.7062 9.67483L10.3285 7.75551C9.97927 7.4736 9.46572 7.53926 9.19855 7.89998L8.96016 8.22186C8.67232 8.61049 8.14436 8.74222 7.73106 8.4911C6.41656 7.69242 5.31143 6.58651 4.51338 5.27114C4.26272 4.85801 4.39431 4.33055 4.78246 4.04273L5.10473 3.80376C5.46524 3.53644 5.53086 3.02259 5.24912 2.67315L3.33086 0.293974C3.07402 -0.0245826 2.61653 -0.0940689 2.27678 0.133875L1.22457 0.839818C0.101706 1.59316 -0.311475 3.04885 0.248031 4.28029L0.657035 5.18048L0.657651 5.18182Z" fill="#E559EE"/>
</svg>
