<svg width="36" height="36" viewBox="0 0 36 36" fill="none" xmlns="http://www.w3.org/2000/svg">
<circle cx="18" cy="18" r="18" fill="#F8F8F8"/>
<path d="M27.8107 12.2272C27.8687 12.1465 27.7831 12.0422 27.6904 12.0781C27.0317 12.3334 26.3432 12.5057 25.641 12.5906C26.4229 12.1235 27.0263 11.4124 27.3609 10.5705C27.395 10.4848 27.3013 10.4082 27.2205 10.4528C26.4938 10.8541 25.71 11.1431 24.8959 11.3096C24.8618 11.3165 24.8267 11.3049 24.8028 11.2797C24.1918 10.635 23.3876 10.2058 22.5108 10.0575C21.6157 9.90601 20.6955 10.056 19.8948 10.4838C19.094 10.9116 18.4579 11.5931 18.0862 12.4214C17.7328 13.209 17.6375 14.0869 17.8118 14.93C17.8253 14.9955 17.7741 15.0572 17.7074 15.0531C16.1234 14.9547 14.5757 14.5334 13.1597 13.8145C11.7472 13.0974 10.4965 12.0998 9.48364 10.8833C9.43869 10.8293 9.35349 10.8363 9.32074 10.8984C9.00557 11.4965 8.84056 12.1631 8.841 12.8406C8.83972 13.515 9.00522 14.1792 9.32276 14.7742C9.6403 15.3691 10.1 15.8763 10.661 16.2506C10.0661 16.2344 9.48275 16.0873 8.95225 15.8207C8.88389 15.7863 8.80188 15.8352 8.80543 15.9117C8.8468 16.8009 9.17326 17.6936 9.73832 18.3786C10.3396 19.1074 11.1743 19.6062 12.101 19.7906C11.7443 19.8992 11.3739 19.9564 11.001 19.9606C10.7981 19.9582 10.5955 19.9433 10.3945 19.9158C10.32 19.9056 10.2592 19.9764 10.2853 20.0469C10.5617 20.7944 11.05 21.4467 11.6921 21.9228C12.3785 22.4318 13.2066 22.7142 14.061 22.7306C12.6182 23.8659 10.8369 24.4855 9.001 24.4906C8.81236 24.4912 8.6238 24.4851 8.43569 24.4723C8.32968 24.4651 8.28092 24.6063 8.3723 24.6605C10.1611 25.7221 12.2056 26.2831 14.291 26.2806C15.8307 26.2966 17.3581 26.0056 18.7841 25.4247C20.2101 24.8437 21.506 23.9845 22.5962 22.8971C23.6864 21.8097 24.549 20.516 25.1336 19.0915C25.7182 17.667 26.013 16.1403 26.001 14.6006V14.1208C26.001 14.0892 26.0159 14.0595 26.0411 14.0405C26.7194 13.5283 27.3159 12.9169 27.8107 12.2272Z" fill="#614AA1"/>
</svg>
