<svg width="174" height="174" viewBox="0 0 174 174" fill="none" xmlns="http://www.w3.org/2000/svg">
<circle cx="87" cy="87" r="87" fill="#FBF0FF"/>
<path d="M94.3375 82.4034C94.5286 82.5844 94.6779 82.8035 94.7754 83.0459C94.8728 83.2884 94.9162 83.5486 94.9025 83.8089V93.7269C94.9113 93.981 94.8627 94.2339 94.7601 94.4673C94.6576 94.7008 94.5037 94.9091 94.3095 95.0773C93.8837 95.4293 93.3393 95.6124 92.7831 95.5906C92.2685 95.6152 91.7646 95.4408 91.3795 95.1048C91.2048 94.9362 91.068 94.7335 90.978 94.5098C90.8879 94.2861 90.8466 94.0464 90.8566 93.8061V93.5374C90.4591 94.1997 89.8837 94.742 89.1934 95.1048C88.4755 95.4714 87.6761 95.6573 86.8669 95.6457C85.1616 95.6457 83.8878 95.1806 83.0562 94.2677C82.2246 93.3548 81.8035 91.939 81.8035 90.0649V83.8089C81.7891 83.5488 81.8318 83.2887 81.9287 83.0463C82.0255 82.8038 82.1743 82.5845 82.3649 82.4034C82.7888 82.0457 83.3367 81.8619 83.8948 81.8901C84.4481 81.8591 84.9915 82.0435 85.4072 82.4034C85.595 82.5861 85.7412 82.8059 85.8362 83.0481C85.9312 83.2904 85.9727 83.5497 85.9581 83.8089V90.1373C85.9581 90.933 86.1266 91.5152 86.4669 91.8942C86.6683 92.0943 86.9117 92.2488 87.1802 92.347C87.4487 92.4451 87.7358 92.4846 88.0214 92.4626C88.3896 92.4754 88.7563 92.4097 89.0962 92.2699C89.436 92.1302 89.741 91.9197 89.9899 91.653C90.5131 91.0634 90.7846 90.2983 90.7479 89.5172V83.8089C90.7333 83.5497 90.7748 83.2904 90.8698 83.0481C90.9647 82.8059 91.1109 82.5861 91.2988 82.4034C91.7144 82.0435 92.2578 81.8591 92.8111 81.8901C93.3681 81.8628 93.9145 82.0465 94.3375 82.4034Z" fill="#614AA1"/>
<path d="M111.182 76.754C111.376 76.9225 111.531 77.1314 111.633 77.3655C111.736 77.5996 111.784 77.8531 111.775 78.1078V93.672C111.784 93.9277 111.738 94.1823 111.641 94.4196C111.543 94.6569 111.397 94.8716 111.21 95.05C110.787 95.3906 110.257 95.5768 109.71 95.5768C109.163 95.5768 108.633 95.3906 108.21 95.05C108.023 94.8716 107.876 94.6569 107.779 94.4196C107.682 94.1823 107.636 93.9277 107.645 93.672V93.455C107.241 94.1421 106.644 94.7006 105.925 95.0638C105.147 95.4589 104.282 95.6589 103.406 95.646C102.308 95.6622 101.23 95.3564 100.311 94.7675C99.3883 94.1574 98.6588 93.3052 98.2056 92.3078C97.6817 91.1665 97.4228 89.9251 97.4476 88.6734C97.4179 87.431 97.6746 86.198 98.1985 85.0666C98.643 84.0808 99.3762 83.2472 100.305 82.6718C101.233 82.0964 102.315 81.8052 103.413 81.8352C104.278 81.8227 105.133 82.0178 105.904 82.4036C106.624 82.7595 107.223 83.3138 107.627 83.9987V78.0251C107.617 77.7826 107.66 77.5408 107.755 77.3165C107.849 77.0922 107.993 76.8908 108.175 76.7264C108.581 76.3892 109.103 76.2156 109.634 76.2407C110.197 76.2167 110.749 76.3997 111.182 76.754ZM106.869 91.55C107.391 90.8931 107.652 89.9515 107.652 88.7251C107.652 87.4987 107.391 86.5628 106.869 85.9175C106.601 85.592 106.258 85.3339 105.868 85.1643C105.478 84.9948 105.053 84.9188 104.627 84.9426C104.2 84.9194 103.774 84.9942 103.381 85.161C102.989 85.3279 102.642 85.5821 102.367 85.9037C101.839 86.5422 101.573 87.4608 101.571 88.6597C101.571 89.886 101.837 90.8334 102.367 91.5086C102.646 91.825 102.991 92.0793 103.378 92.2545C103.765 92.4296 104.186 92.5215 104.612 92.5242C105.038 92.5268 105.46 92.44 105.849 92.2696C106.239 92.0992 106.586 91.8492 106.869 91.5362V91.55Z" fill="#614AA1"/>
<path d="M117.701 94.7958C116.642 94.2517 115.771 93.4128 115.196 92.3844C114.585 91.2589 114.281 89.9973 114.315 88.7224C114.282 87.4487 114.585 86.1883 115.196 85.0639C115.766 84.0317 116.639 83.1915 117.701 82.6525C118.879 82.102 120.167 81.8164 121.472 81.8164C122.776 81.8164 124.064 82.102 125.242 82.6525C126.303 83.1931 127.176 84.0329 127.747 85.0639C128.356 86.1889 128.66 87.4489 128.628 88.7224C128.66 89.9971 128.357 91.2584 127.747 92.3844C127.171 93.412 126.3 94.2507 125.242 94.7958C124.067 95.3557 122.778 95.6466 121.472 95.6466C120.165 95.6466 118.876 95.3557 117.701 94.7958ZM124.516 88.7259C124.516 87.4467 124.255 86.4924 123.733 85.8631C123.459 85.545 123.114 85.2937 122.724 85.1293C122.334 84.9649 121.911 84.8918 121.487 84.9158C119.471 84.9158 118.461 86.1858 118.459 88.7259C118.457 91.2659 119.46 92.5406 121.47 92.5497C123.5 92.5497 124.516 91.2751 124.516 88.7259Z" fill="#614AA1"/>
<path d="M133.885 94.8006C132.827 94.2544 131.956 93.416 131.379 92.3891C130.77 91.2631 130.466 90.0018 130.498 88.7272C130.467 87.4536 130.77 86.1936 131.379 85.0686C131.952 84.0383 132.824 83.1988 133.885 82.6572C135.063 82.1062 136.352 81.8203 137.657 81.8203C138.962 81.8203 140.25 82.1062 141.429 82.6572C142.489 83.1978 143.361 84.0377 143.931 85.0686C144.542 86.1927 144.847 87.4531 144.815 88.7272C144.847 90.0023 144.543 91.264 143.931 92.3891C143.356 93.4165 142.486 94.2552 141.429 94.8006C140.253 95.3605 138.963 95.6514 137.657 95.6514C136.35 95.6514 135.06 95.3605 133.885 94.8006ZM140.685 88.7306C140.685 87.4514 140.423 86.4971 139.899 85.8679C139.626 85.5498 139.281 85.2985 138.892 85.1341C138.503 84.9696 138.08 84.8965 137.657 84.9205C135.64 84.9205 134.631 86.1905 134.628 88.7306C134.626 91.2707 135.636 92.5453 137.657 92.5545C139.675 92.5545 140.685 91.2799 140.685 88.7306Z" fill="#614AA1"/>
<path d="M74.9905 64.774L48.9119 65.308C48.1349 65.3225 47.394 65.6325 46.8451 66.1727L29.553 83.1493C28.9888 83.7036 28.6719 84.4551 28.6719 85.2387C28.6719 86.0222 28.9888 86.7738 29.553 87.328L55.6561 112.955C56.2207 113.509 56.9862 113.82 57.7843 113.82C58.5825 113.82 59.348 113.509 59.9125 112.955L77.1801 95.9955C77.4598 95.7209 77.6815 95.3949 77.8326 95.0361C77.9838 94.6772 78.0613 94.2927 78.0609 93.9044V67.747C78.0633 67.3524 77.9852 66.9614 77.8312 66.5969C77.6773 66.2324 77.4505 65.9019 77.1644 65.6248C76.8782 65.3477 76.5384 65.1297 76.1651 64.9836C75.7917 64.8374 75.3924 64.7662 74.9905 64.774ZM71.0043 79.5115L65.0777 86.2876V93.0948C65.1001 93.4437 65.0462 93.7933 64.9197 94.12C64.7932 94.4468 64.597 94.7433 64.3443 94.9895C63.8407 95.4291 63.1824 95.659 62.5091 95.6303C61.8201 95.6582 61.1457 95.4293 60.6213 94.9895C60.3682 94.7434 60.1715 94.4471 60.0444 94.1203C59.9173 93.7936 59.8628 93.4439 59.8844 93.0948V86.2876L54.0175 79.5115C53.6084 79.0902 53.3765 78.5328 53.3683 77.9509C53.3681 77.6461 53.4334 77.3448 53.5597 77.0664C53.6861 76.788 53.8707 76.5389 54.1017 76.3352C54.3182 76.1174 54.5768 75.9442 54.8625 75.8259C55.1481 75.7076 55.4549 75.6465 55.7649 75.6462C56.0981 75.6474 56.4266 75.7224 56.7261 75.8655C57.0257 76.0087 57.2884 76.2163 57.4948 76.473L62.4881 82.3294L67.4849 76.473C67.6893 76.2151 67.9504 76.0059 68.2488 75.861C68.5471 75.716 68.8749 75.6391 69.2078 75.6359C69.5195 75.6389 69.8274 75.7047 70.1122 75.8291C70.3971 75.9536 70.6529 76.134 70.864 76.3593C71.1014 76.5593 71.2923 76.8071 71.4237 77.0859C71.5551 77.3646 71.6239 77.6679 71.6254 77.975C71.6154 78.5442 71.3947 79.0904 71.0043 79.5115Z" fill="#E559EE"/>
<path d="M91.6681 64.7735C91.997 64.7721 92.3204 64.8563 92.6055 65.0174C92.8905 65.1786 93.1271 65.4109 93.291 65.6909C93.455 65.9708 93.5405 66.2884 93.539 66.6113C93.5374 66.9342 93.4489 67.251 93.2822 67.5294L89.9698 73.1619C89.8068 73.4402 89.5719 73.6715 89.2888 73.8323C89.0057 73.9931 88.6845 74.0778 88.3574 74.0778C88.0303 74.0778 87.7091 73.9931 87.426 73.8323C87.1429 73.6715 86.908 73.4402 86.745 73.1619L83.4326 67.5294C83.2659 67.251 83.1773 66.9342 83.1758 66.6113C83.1743 66.2884 83.2598 65.9708 83.4238 65.6909C83.5877 65.4109 83.8242 65.1786 84.1093 65.0174C84.3943 64.8563 84.7178 64.7721 85.0467 64.7735H91.6681Z" fill="#614AA1"/>
</svg>
